<?xml version="1.0" standalone="no"?><!DOCTYPE svg PUBLIC "-//W3C//DTD SVG 1.1//EN" "http://www.w3.org/Graphics/SVG/1.1/DTD/svg11.dtd"><svg class="icon" height="512" viewBox="0 0 1638 1024" version="1.1" xmlns="http://www.w3.org/2000/svg"><path d="M804.010667 307.2c-6.030222-37.603556-30.094222-66.218667-61.724445-75.264l-3.015111 42.154667c0 1.479111-1.479111 3.015111-4.494222 3.015111h-1.479111c3.015111-3.015111 4.494222-6.030222 4.494222-9.045334v-34.645333c0-7.509333-6.030222-13.539556-13.539556-13.539555-7.509333 0-13.539556 6.030222-13.539555 13.539555v34.645333c0 3.015111 1.479111 7.509333 4.494222 9.045334h-1.479111c-1.479111 0-4.494222-1.479111-4.494222-3.015111l-3.015111-42.154667c-33.109333 7.509333-58.709333 39.139556-64.739556 76.743111-16.554667 7.509333-25.6 13.539556-28.615111 16.554667-15.075556 16.554667 52.679111 7.509333 114.403556 7.509333s96.312889 4.494222 106.837333-3.015111c6.030222-4.494222-7.509333-15.018667-30.094222-22.528z m0 0M868.750222 529.92V540.444444c0 22.584889-58.709333 40.618667-58.709333 40.618667l-24.064-3.015111s-39.139556-4.494222-63.203556-4.494222-63.203556 4.494222-63.203555 4.494222l-22.584889 3.015111S578.275556 561.493333 578.275556 540.444444v-10.524444c0-21.048889 27.079111-40.618667 58.709333-57.173333 1.479111-1.479111 21.048889 106.837333 21.048889 106.837333h9.045333s-16.554667-109.852444-15.075555-111.388444c9.045333-4.494222 15.075556-7.509333 22.584888-10.524445 3.015111-1.479111 18.033778-9.045333 10.524445-31.630222-19.569778-21.048889-33.109333-40.618667-33.109333-84.309333h145.976888c0 43.633778-13.539556 63.203556-33.109333 82.773333-9.045333 25.6 4.494222 31.630222 7.509333 31.630222 9.045333 3.015111 16.554667 7.509333 25.6 10.524445 1.479111 1.479111-15.075556 111.388444-15.075555 111.388444h9.045333s18.033778-106.837333 19.569778-105.358222c31.630222 15.132444 57.230222 36.181333 57.230222 57.230222z m0 0M946.176 723.512889H501.703111c-6.542222 0-11.832889-5.347556-11.832889-11.832889v-36.010667c0-6.542222 5.347556-11.832889 11.832889-11.832889h444.472889c6.542222 0 11.832889 5.347556 11.832889 11.832889v36.010667c0.056889 6.485333-5.290667 11.832889-11.832889 11.832889zM828.472889 949.930667H430.648889c-32.369778 0-58.595556-26.282667-58.595556-58.595556V188.017778c0-32.426667 26.225778-58.595556 58.595556-58.595556h586.069333c32.312889 0 58.595556 26.225778 58.595556 58.595556v481.792l34.019555-33.962667 24.576-24.576v-423.253333c0-64.796444-52.508444-117.191111-117.248-117.191111h-58.595555V41.528889c0-16.270222-13.084444-29.297778-29.297778-29.297778H518.542222C502.328889 12.174222 489.244444 25.258667 489.244444 41.528889v29.297778H430.648889c-64.739556 0-117.248 52.394667-117.248 117.191111v703.260444c0 64.682667 52.508444 117.191111 117.248 117.191111h374.215111l23.608889-58.538666zM1075.313778 866.872889v24.405333c0 32.369778-26.282667 58.595556-58.595556 58.595556H992.142222l-11.889778 18.147555-12.515555 9.728-11.776 8.248889-0.796445 0.796445-0.341333-0.284445-50.688 22.016h112.526222c64.739556 0 117.248-52.565333 117.248-117.191111V808.391111l-58.595555 58.481778zM873.130667 908.060444l58.936889 58.254223-99.953778 43.349333zM893.041778 889.685333l213.504-213.162666 59.392 59.221333-213.504 213.162667zM1124.295111 658.830222l43.918222-43.861333 59.335111 59.221333-43.918222 43.918222zM848.952889 865.223111H501.703111c-6.542222 0-11.832889-5.347556-11.832889-11.832889v-36.010666c0-6.542222 5.347556-11.832889 11.832889-11.832889h347.249778c6.542222 0 11.832889 5.347556 11.832889 11.832889v36.010666c0 6.485333-5.347556 11.832889-11.832889 11.832889z" /></svg>